<svg width="165" height="46" viewBox="0 0 165 46" fill="none" xmlns="http://www.w3.org/2000/svg">
<path d="M73.3515 18V4.42H75.1945V18H73.3515ZM78.694 18V7.912H80.3818V9.5998C80.744 9.0566 81.2031 8.60393 81.7592 8.2418C82.3283 7.86673 83.0008 7.6792 83.7768 7.6792C84.915 7.6792 85.7621 8.02193 86.3182 8.7074C86.8873 9.39287 87.1718 10.2982 87.1718 11.4234V18H85.4258V11.6174C85.4258 10.8931 85.2512 10.3111 84.902 9.8714C84.5658 9.43167 84.0937 9.2118 83.4858 9.2118C82.8909 9.2118 82.3283 9.4252 81.798 9.852C81.2678 10.2659 80.8151 10.7573 80.44 11.3264V18H78.694ZM90.5629 18V9.7938H89.0109V8.2806H90.5629V7.0972C90.5629 5.95907 90.8798 5.0602 91.5135 4.4006C92.1472 3.741 92.975 3.4112 93.9967 3.4112C94.527 3.4112 94.9926 3.47587 95.3935 3.6052C95.7944 3.7216 96.176 3.87033 96.5381 4.0514L96.0143 5.5258C95.7427 5.38353 95.4517 5.2542 95.1413 5.1378C94.8309 5.0214 94.4882 4.9632 94.1131 4.9632C93.5699 4.9632 93.1302 5.1378 92.7939 5.487C92.4706 5.82327 92.3089 6.3212 92.3089 6.9808V8.2806H95.2965V9.7938H92.3089V18H90.5629ZM100.373 18.2328C99.7777 18.2328 99.241 18.1229 98.7624 17.903C98.2839 17.6702 97.9024 17.3016 97.6178 16.7972C97.3462 16.2928 97.2104 15.6397 97.2104 14.8378V3.644H98.9564V14.6632C98.9564 15.3616 99.0987 15.8789 99.3832 16.2152C99.6807 16.5515 100.088 16.7196 100.605 16.7196C100.851 16.7196 101.09 16.6937 101.323 16.642C101.569 16.5773 101.776 16.5062 101.944 16.4286L102.371 17.8448C102.138 17.9483 101.847 18.0388 101.498 18.1164C101.162 18.194 100.787 18.2328 100.373 18.2328ZM107.222 18.2328C106.64 18.2328 106.09 18.1099 105.573 17.8642C105.056 17.6185 104.635 17.224 104.312 16.6808C103.989 16.1247 103.827 15.3875 103.827 14.4692V7.912H105.573V14.2364C105.573 15.0253 105.741 15.6332 106.077 16.06C106.414 16.4739 106.905 16.6808 107.552 16.6808C108.082 16.6808 108.593 16.5773 109.084 16.3704C109.589 16.1505 110.035 15.8595 110.423 15.4974V7.912H112.169V15.381C112.169 15.9371 112.285 16.3057 112.518 16.4868C112.764 16.6549 113.029 16.739 113.313 16.739L112.945 18.097C111.742 18.097 110.998 17.6185 110.714 16.6614C110.261 17.127 109.737 17.5085 109.142 17.806C108.548 18.0905 107.907 18.2328 107.222 18.2328ZM119.672 18.2328C118.223 18.2328 117.072 17.7737 116.219 16.8554C115.378 15.9242 114.958 14.6244 114.958 12.956C114.958 11.9472 115.145 11.0483 115.52 10.2594C115.908 9.45753 116.445 8.83027 117.13 8.3776C117.816 7.912 118.611 7.6792 119.517 7.6792C120.487 7.6792 121.289 7.8926 121.922 8.3194C122.569 8.73327 123.054 9.29587 123.377 10.0072C123.701 10.7185 123.862 11.501 123.862 12.3546C123.862 12.8073 123.843 13.247 123.804 13.6738H116.742C116.859 14.6179 117.189 15.3551 117.732 15.8854C118.275 16.4157 118.993 16.6808 119.885 16.6808C120.467 16.6808 120.991 16.6226 121.457 16.5062C121.922 16.3769 122.368 16.2152 122.795 16.0212L123.203 17.515C122.737 17.7219 122.213 17.8901 121.631 18.0194C121.049 18.1617 120.396 18.2328 119.672 18.2328ZM116.723 12.2576H122.252C122.252 11.2747 122.006 10.5181 121.515 9.9878C121.023 9.45753 120.344 9.1924 119.478 9.1924C118.728 9.1924 118.107 9.45753 117.615 9.9878C117.124 10.5051 116.827 11.2617 116.723 12.2576ZM126.383 18V7.912H128.071V9.5998C128.433 9.0566 128.892 8.60393 129.448 8.2418C130.017 7.86673 130.69 7.6792 131.466 7.6792C132.604 7.6792 133.451 8.02193 134.007 8.7074C134.576 9.39287 134.861 10.2982 134.861 11.4234V18H133.115V11.6174C133.115 10.8931 132.94 10.3111 132.591 9.8714C132.255 9.43167 131.783 9.2118 131.175 9.2118C130.58 9.2118 130.017 9.4252 129.487 9.852C128.957 10.2659 128.504 10.7573 128.129 11.3264V18H126.383ZM142.132 18.2328C141.175 18.2328 140.334 18.0129 139.61 17.5732C138.899 17.1205 138.349 16.4997 137.961 15.7108C137.573 14.9089 137.379 13.9907 137.379 12.956C137.379 11.986 137.573 11.1001 137.961 10.2982C138.362 9.49633 138.931 8.8626 139.668 8.397C140.405 7.91847 141.272 7.6792 142.268 7.6792C142.837 7.6792 143.335 7.73093 143.762 7.8344C144.201 7.93787 144.622 8.0866 145.023 8.2806L144.499 9.755C144.137 9.57393 143.788 9.4446 143.451 9.367C143.128 9.27647 142.766 9.2312 142.365 9.2312C141.46 9.2312 140.696 9.561 140.076 10.2206C139.468 10.8673 139.164 11.7661 139.164 12.9172C139.164 13.6156 139.293 14.2493 139.552 14.8184C139.811 15.3875 140.166 15.8401 140.619 16.1764C141.084 16.5127 141.628 16.6808 142.248 16.6808C142.74 16.6808 143.16 16.6291 143.509 16.5256C143.859 16.4092 144.234 16.2475 144.635 16.0406L145.178 17.515C144.777 17.7349 144.324 17.9095 143.82 18.0388C143.328 18.1681 142.766 18.2328 142.132 18.2328ZM151.248 18.2328C149.8 18.2328 148.649 17.7737 147.795 16.8554C146.955 15.9242 146.534 14.6244 146.534 12.956C146.534 11.9472 146.722 11.0483 147.097 10.2594C147.485 9.45753 148.022 8.83027 148.707 8.3776C149.392 7.912 150.188 7.6792 151.093 7.6792C152.063 7.6792 152.865 7.8926 153.499 8.3194C154.145 8.73327 154.63 9.29587 154.954 10.0072C155.277 10.7185 155.439 11.501 155.439 12.3546C155.439 12.8073 155.419 13.247 155.381 13.6738H148.319C148.435 14.6179 148.765 15.3551 149.308 15.8854C149.852 16.4157 150.569 16.6808 151.462 16.6808C152.044 16.6808 152.568 16.6226 153.033 16.5062C153.499 16.3769 153.945 16.2152 154.372 16.0212L154.779 17.515C154.314 17.7219 153.79 17.8901 153.208 18.0194C152.626 18.1617 151.973 18.2328 151.248 18.2328ZM148.3 12.2576H153.829C153.829 11.2747 153.583 10.5181 153.091 9.9878C152.6 9.45753 151.921 9.1924 151.054 9.1924C150.304 9.1924 149.683 9.45753 149.192 9.9878C148.701 10.5051 148.403 11.2617 148.3 12.2576ZM157.96 18V7.912H159.648V10.1042C159.816 9.6774 160.042 9.28293 160.327 8.9208C160.611 8.54573 160.967 8.24827 161.394 8.0284C161.82 7.7956 162.318 7.6792 162.887 7.6792C163.081 7.6792 163.275 7.69213 163.469 7.718C163.663 7.73093 163.825 7.7568 163.954 7.7956L163.431 9.5998C163.185 9.49633 162.894 9.4446 162.558 9.4446C162.079 9.4446 161.62 9.5804 161.18 9.852C160.753 10.1236 160.398 10.5439 160.113 11.113C159.842 11.6821 159.706 12.4063 159.706 13.2858V18H157.96ZM73.3515 41V27.42H75.9317L79.6953 36.0142L83.4007 27.42H86.0391V41H84.1961V29.7674L80.5683 37.9348H78.7447L75.0975 29.7674V41H73.3515ZM93.3914 41.2328C92.5507 41.2328 91.7876 41.0194 91.1022 40.5926C90.4167 40.1658 89.867 39.5644 89.4532 38.7884C89.0522 37.9995 88.8518 37.0747 88.8518 36.0142C88.8518 35.0054 89.0522 34.1001 89.4532 33.2982C89.867 32.4963 90.4296 31.8626 91.141 31.397C91.8652 30.9185 92.693 30.6792 93.6242 30.6792C94.2062 30.6792 94.73 30.7827 95.1956 30.9896C95.6741 31.1836 96.088 31.4293 96.4372 31.7268V30.912H98.028V38.5556C98.028 39.0471 98.1444 39.3704 98.3772 39.5256C98.6229 39.6679 98.888 39.739 99.1726 39.739L98.804 41.097C97.5624 41.097 96.8122 40.5926 96.5536 39.5838C96.2561 39.9977 95.8487 40.3792 95.3314 40.7284C94.827 41.0647 94.1803 41.2328 93.3914 41.2328ZM93.7794 39.6808C94.2708 39.6808 94.7364 39.5644 95.1762 39.3316C95.6159 39.0859 95.9845 38.7819 96.282 38.4198V33.0072C95.9328 32.7615 95.5448 32.5675 95.118 32.4252C94.7041 32.27 94.2644 32.1924 93.7988 32.1924C93.178 32.1924 92.6283 32.3541 92.1498 32.6774C91.6842 32.9878 91.3156 33.4275 91.044 33.9966C90.7724 34.5527 90.6366 35.2059 90.6366 35.956C90.6366 36.6803 90.7724 37.3269 91.044 37.896C91.3156 38.4521 91.6906 38.8919 92.1692 39.2152C92.6477 39.5256 93.1844 39.6808 93.7794 39.6808ZM101.698 41V30.912H103.386V33.1042C103.554 32.6774 103.78 32.2829 104.065 31.9208C104.35 31.5457 104.705 31.2483 105.132 31.0284C105.559 30.7956 106.057 30.6792 106.626 30.6792C106.82 30.6792 107.014 30.6921 107.208 30.718C107.402 30.7309 107.563 30.7568 107.693 30.7956L107.169 32.5998C106.923 32.4963 106.632 32.4446 106.296 32.4446C105.817 32.4446 105.358 32.5804 104.919 32.852C104.492 33.1236 104.136 33.5439 103.852 34.113C103.58 34.6821 103.444 35.4063 103.444 36.2858V41H101.698ZM116.605 41.194L111.387 35.8202V41H109.641V26.644H111.387V34.8502L115.946 30.718L116.955 31.8238L113.055 35.277L117.808 40.03L116.605 41.194ZM123.494 41.2328C122.046 41.2328 120.895 40.7737 120.041 39.8554C119.2 38.9242 118.78 37.6244 118.78 35.956C118.78 34.9472 118.968 34.0483 119.343 33.2594C119.731 32.4575 120.267 31.8303 120.953 31.3776C121.638 30.912 122.434 30.6792 123.339 30.6792C124.309 30.6792 125.111 30.8926 125.745 31.3194C126.391 31.7333 126.876 32.2959 127.2 33.0072C127.523 33.7185 127.685 34.501 127.685 35.3546C127.685 35.8073 127.665 36.247 127.626 36.6738H120.565C120.681 37.6179 121.011 38.3551 121.554 38.8854C122.097 39.4157 122.815 39.6808 123.708 39.6808C124.29 39.6808 124.813 39.6226 125.279 39.5062C125.745 39.3769 126.191 39.2152 126.618 39.0212L127.025 40.515C126.559 40.7219 126.036 40.8901 125.454 41.0194C124.872 41.1617 124.219 41.2328 123.494 41.2328ZM120.545 35.2576H126.074C126.074 34.2747 125.829 33.5181 125.337 32.9878C124.846 32.4575 124.167 32.1924 123.3 32.1924C122.55 32.1924 121.929 32.4575 121.438 32.9878C120.946 33.5051 120.649 34.2617 120.545 35.2576ZM133.736 41.2328C132.766 41.2328 131.997 40.9159 131.428 40.2822C130.872 39.6355 130.594 38.7173 130.594 37.5274V32.7938H128.848V31.2806H130.632L131.001 28.099H132.34V31.2806H135.133V32.7938H132.34V37.6632C132.34 38.4133 132.495 38.9371 132.805 39.2346C133.129 39.5321 133.51 39.6808 133.95 39.6808C134.273 39.6808 134.577 39.6291 134.862 39.5256C135.159 39.4221 135.431 39.2993 135.676 39.157L136.161 40.5538C135.903 40.709 135.554 40.8577 135.114 41C134.674 41.1552 134.215 41.2328 133.736 41.2328Z" fill="#283F41"/>
<path d="M42.4659 0L62.1959 35.3063C63.4153 37.4884 61.0457 39.9183 58.8336 38.7541L42.4659 30.1395L26.0982 38.7541C23.8862 39.9183 21.5165 37.4884 22.7359 35.3063L42.4659 0Z" fill="#365453"/>
<path d="M24.6055 1L44.4013 35.6428C45.6418 37.8136 43.2943 40.2663 41.0712 39.1221L24.6055 30.6471L8.13973 39.1221C5.91668 40.2663 3.56913 37.8136 4.8096 35.6428L24.6055 1Z" fill="url(#paint0_linear_37_8979)"/>
<defs>
<linearGradient id="paint0_linear_37_8979" x1="24.6055" y1="40.5294" x2="24.6055" y2="4.70588" gradientUnits="userSpaceOnUse">
<stop stop-color="#329D9C"/>
<stop offset="1" stop-color="#AAE5E0"/>
</linearGradient>
</defs>
</svg>
